# xmcd
#
# Track frame offsets: 
#        150
#        18844
#        40474
#        56168
#        77968
#        94644
#        111651
#        129650
#        147812
#        166841
#        184022
#
# Disc length: 2697 seconds
#
# Revision: 0
# Processed by: cddbd v1.5.2PL0 Copyright (c) Steve Scherf et al.
# Submitted via: ExactAudioCopy v0.90b4
#
DISCID=950a870b
DTITLE=Aris Ramirez - Nadie Me Lo Hace Como Tu
DYEAR=2007
DGENRE=Latin
TTITLE0=Hazme El Amor Como Nunca
TTITLE1=Me Callo O Me Voy
TTITLE2=Los Hombres De Rabia Lloran
TTITLE3=Nadie Me Lo Hace Como Tú
TTITLE4=Me Queda Grande La Cama
TTITLE5=Retrato De Ti
TTITLE6=Que Vivan Las Mujeres
TTITLE7=Te Quiero
TTITLE8=Me Queda Grande La Cama (Balada)
TTITLE9=Cuando Tú No Estas
TTITLE10=Una Noche Mas
EXTD=
EXTT0=
EXTT1=
EXTT2=
EXTT3=
EXTT4=
EXTT5=
EXTT6=
EXTT7=
EXTT8=
EXTT9=
EXTT10=
PLAYORDER=
